<?xml version="1.0" encoding="UTF-8" standalone="no"?>
<!DOCTYPE svg PUBLIC "-//W3C//DTD SVG 1.1//EN" "http://www.w3.org/Graphics/SVG/1.1/DTD/svg11.dtd">
<svg width="100%" height="100%" viewBox="0 0 4580 880" version="1.1" xmlns="http://www.w3.org/2000/svg" xmlns:xlink="http://www.w3.org/1999/xlink" xml:space="preserve" xmlns:serif="http://www.serif.com/" style="fill-rule:evenodd;clip-rule:evenodd;stroke-linejoin:round;stroke-miterlimit:2;">
    <g id="Artboard1" transform="matrix(1.76889,0,0,0.811879,1795.9,152.041)">
        <rect x="-1015.27" y="-187.271" width="2588.72" height="1082.71" style="fill:none;"/>
        <g transform="matrix(3.1407,0,0,6.84284,-461.258,-85.4893)">
            <g transform="matrix(1,0,0,1,-174.096,-13.9959)">
                <path d="M115.78,13.332L114.533,13.332L77.255,96.849L43.834,24.533C39.469,15.064 26.257,-3.668 2.606,1.667L2.606,3.053C19.374,0.905 29.237,15.387 35.08,26.889L29.049,47.408L26.651,55.57L10.24,55.57L10.24,56.979L11.348,56.979C15.644,56.979 20.227,59.774 23.566,65.663L23.644,65.8L20.441,76.697L19.167,81.029L12.861,102.485C11.352,107.621 7.664,110.846 2.814,110.846L0.597,110.846L0.597,112.232L27.435,112.232L27.435,110.915L25.287,110.915C22.723,110.915 18.967,108.214 19.883,105.003L25.438,85.51L28.576,74.498L54.169,119.632L55.823,122.547L58.576,127.403L72.855,153.5L75.042,153.5C76.902,149.112 78.317,144.692 80.339,140.265L120.484,69.138L123.719,80.01L128.668,96.641C133.888,114.181 142.238,130.467 158.639,135.215C161.89,136.347 166.644,136.539 166.644,136.539C169.522,136.695 172.6,136.552 175.901,136.067L175.901,134.681C172.577,134.824 169.498,134.501 166.644,133.736C161.039,132.049 157.209,129.06 157.209,129.06C148.801,122.634 142.935,110.983 138.6,95.394L130.823,67.426L127.729,56.301L127.894,56.009C135.57,42.408 143.254,24.02 166.258,23.095L166.258,21.71C143.955,20.858 132.617,32.745 124.736,45.539L121.86,35.195L115.78,13.332ZM69.416,127.375L34.999,65.593C32.137,60.455 36.662,56.956 40.219,56.956L41.443,56.956L41.443,55.57L33.971,55.57L36.297,47.408L39.492,36.197L75.384,114.172L76.678,114.172C77.578,108.444 81.436,100.013 81.436,100.013L110.283,34.857L114.097,47.672L117.409,58.806L75.465,138.233L74.103,135.788L69.416,127.375Z" style="fill:white;fill-rule:nonzero;"/>
            </g>
            <g transform="matrix(1.88824,0,0,1.88824,-76.9431,-5.18176)">
                <path d="M92.936,56.046L87.423,56.046L86.236,58.69L85.147,58.69L89.671,48.795L90.703,48.795L95.226,58.69L94.124,58.69L92.936,56.046ZM92.555,55.198L90.18,49.883L87.805,55.198L92.555,55.198ZM117.721,48.795L121.75,48.795C122.796,48.795 123.72,49.004 124.521,49.424C125.322,49.843 125.944,50.427 126.387,51.177C126.83,51.926 127.051,52.781 127.051,53.742C127.051,54.703 126.83,55.559 126.387,56.308C125.944,57.057 125.322,57.641 124.521,58.061C123.72,58.48 122.796,58.69 121.75,58.69L117.721,58.69L117.721,48.795ZM121.694,57.785C122.56,57.785 123.319,57.613 123.97,57.269C124.62,56.925 125.124,56.449 125.482,55.842C125.84,55.234 126.019,54.534 126.019,53.742C126.019,52.951 125.84,52.251 125.482,51.643C125.124,51.035 124.62,50.559 123.97,50.215C123.319,49.871 122.56,49.699 121.694,49.699L118.767,49.699L118.767,57.785L121.694,57.785ZM158.183,48.795L153.801,58.69L152.77,58.69L148.387,48.795L149.518,48.795L153.307,57.389L157.123,48.795L158.183,48.795ZM184.708,58.775C183.728,58.775 182.839,58.555 182.043,58.117C181.247,57.679 180.625,57.078 180.177,56.315C179.73,55.552 179.506,54.694 179.506,53.742C179.506,52.79 179.73,51.933 180.177,51.169C180.625,50.406 181.247,49.805 182.043,49.367C182.839,48.929 183.728,48.71 184.708,48.71C185.688,48.71 186.571,48.927 187.358,49.36C188.145,49.794 188.765,50.394 189.217,51.162C189.669,51.931 189.895,52.79 189.895,53.742C189.895,54.694 189.669,55.554 189.217,56.322C188.765,57.09 188.145,57.691 187.358,58.124C186.571,58.558 185.688,58.775 184.708,58.775ZM184.708,57.842C185.49,57.842 186.197,57.665 186.828,57.312C187.459,56.958 187.954,56.468 188.312,55.842C188.67,55.215 188.849,54.515 188.849,53.742C188.849,52.969 188.67,52.27 188.312,51.643C187.954,51.016 187.459,50.526 186.828,50.173C186.197,49.82 185.49,49.643 184.708,49.643C183.925,49.643 183.216,49.82 182.58,50.173C181.944,50.526 181.445,51.016 181.082,51.643C180.719,52.27 180.538,52.969 180.538,53.742C180.538,54.515 180.719,55.215 181.082,55.842C181.445,56.468 181.944,56.958 182.58,57.312C183.216,57.665 183.925,57.842 184.708,57.842ZM217.395,58.775C216.415,58.775 215.531,58.558 214.745,58.124C213.958,57.691 213.34,57.09 212.893,56.322C212.445,55.554 212.221,54.694 212.221,53.742C212.221,52.79 212.445,51.931 212.893,51.162C213.34,50.394 213.96,49.794 214.752,49.36C215.543,48.927 216.429,48.71 217.409,48.71C218.144,48.71 218.822,48.832 219.445,49.078C220.067,49.322 220.594,49.68 221.028,50.152L220.363,50.816C219.591,50.034 218.615,49.643 217.437,49.643C216.655,49.643 215.944,49.822 215.303,50.18C214.662,50.538 214.16,51.028 213.797,51.65C213.434,52.272 213.253,52.969 213.253,53.742C213.253,54.515 213.434,55.212 213.797,55.834C214.16,56.456 214.662,56.946 215.303,57.304C215.944,57.663 216.655,57.842 217.437,57.842C218.625,57.842 219.6,57.446 220.363,56.654L221.028,57.319C220.594,57.79 220.064,58.15 219.438,58.4C218.811,58.65 218.13,58.775 217.395,58.775ZM250.068,56.046L244.555,56.046L243.368,58.69L242.279,58.69L246.802,48.795L247.835,48.795L252.358,58.69L251.255,58.69L250.068,56.046ZM249.686,55.198L247.312,49.883L244.937,55.198L249.686,55.198ZM279.009,58.775C278.029,58.775 277.146,58.558 276.359,58.124C275.572,57.691 274.955,57.09 274.507,56.322C274.06,55.554 273.836,54.694 273.836,53.742C273.836,52.79 274.06,51.931 274.507,51.162C274.955,50.394 275.574,49.794 276.366,49.36C277.158,48.927 278.043,48.71 279.024,48.71C279.759,48.71 280.437,48.832 281.059,49.078C281.681,49.322 282.209,49.68 282.642,50.152L281.978,50.816C281.205,50.034 280.23,49.643 279.052,49.643C278.27,49.643 277.558,49.822 276.917,50.18C276.276,50.538 275.774,51.028 275.412,51.65C275.049,52.272 274.868,52.969 274.868,53.742C274.868,54.515 275.049,55.212 275.412,55.834C275.774,56.456 276.276,56.946 276.917,57.304C277.558,57.663 278.27,57.842 279.052,57.842C280.239,57.842 281.214,57.446 281.978,56.654L282.642,57.319C282.209,57.79 281.679,58.15 281.052,58.4C280.425,58.65 279.744,58.775 279.009,58.775ZM305.731,48.795L306.777,48.795L306.777,58.69L305.731,58.69L305.731,48.795ZM337.061,56.046L331.548,56.046L330.361,58.69L329.273,58.69L333.796,48.795L334.828,48.795L339.352,58.69L338.249,58.69L337.061,56.046ZM336.68,55.198L334.305,49.883L331.93,55.198L336.68,55.198Z" style="fill:white;fill-rule:nonzero;stroke:white;stroke-width:0.79px;"/>
            </g>
            <g transform="matrix(1.46236,0,0,1.46236,5.39899,34.4627)">
                <path d="M24.495,23.361L24.345,23.302C24.246,23.282 24.116,23.222 23.957,23.122C23.797,23.023 23.638,22.868 23.479,22.659C23.32,22.45 23.19,22.181 23.09,21.852C22.991,21.524 22.941,21.1 22.941,20.583L22.941,2.895C22.941,2.377 22.991,1.953 23.09,1.625C23.19,1.296 23.32,1.032 23.479,0.833C23.638,0.634 23.797,0.485 23.957,0.385C24.116,0.285 24.246,0.216 24.345,0.176L24.495,0.146L18.997,0.146L19.117,0.176C19.296,0.235 19.455,0.355 19.594,0.534C19.734,0.714 19.804,0.982 19.804,1.341C19.804,1.779 19.674,2.297 19.415,2.895L12.245,19.836L5.104,2.895C4.845,2.297 4.715,1.799 4.715,1.401C4.715,1.261 4.725,1.117 4.745,0.968C4.765,0.818 4.815,0.684 4.895,0.564C4.974,0.445 5.064,0.355 5.163,0.295C5.263,0.235 5.353,0.196 5.432,0.176L5.522,0.146L0.263,0.146L0.473,0.265C0.612,0.345 0.776,0.489 0.965,0.699C1.155,0.908 1.329,1.187 1.488,1.535C1.648,1.884 1.757,2.327 1.817,2.865L1.817,20.642C1.757,21.18 1.648,21.623 1.488,21.972C1.329,22.32 1.155,22.599 0.965,22.809C0.776,23.018 0.612,23.162 0.473,23.242L0.263,23.361L4.357,23.361L4.177,23.302C3.859,23.222 3.58,23.003 3.341,22.644C2.962,22.146 2.773,21.459 2.773,20.583C2.773,8.612 2.783,2.556 2.803,2.417C2.923,2.636 5.9,9.617 11.737,23.361L20.371,2.865C20.491,2.606 20.63,2.367 20.79,2.148C20.83,2.367 20.859,2.606 20.879,2.865L20.879,20.642C20.839,21.18 20.74,21.623 20.581,21.972C20.421,22.32 20.247,22.599 20.058,22.809C19.869,23.018 19.704,23.162 19.565,23.242L19.326,23.361L24.495,23.361ZM51.64,23.361C51.62,23.361 51.466,23.286 51.177,23.137C50.888,22.988 50.549,22.714 50.161,22.316C49.772,21.917 49.409,21.359 49.07,20.642L41.72,0.146L34.101,20.642C33.782,21.359 33.424,21.917 33.026,22.316C32.627,22.714 32.289,22.983 32.01,23.122L31.562,23.361L36.73,23.361L36.641,23.332C36.422,23.272 36.238,23.137 36.088,22.928C35.939,22.719 35.864,22.435 35.864,22.077C35.864,21.678 35.964,21.18 36.163,20.583L38.523,14.159L45.694,14.159L48.054,20.583C48.273,21.14 48.383,21.618 48.383,22.017C48.383,22.574 48.214,22.973 47.875,23.212L47.517,23.361L51.64,23.361ZM45.276,13.053L38.942,13.053L42.109,4.419L45.276,13.053ZM63.547,23.361L63.398,23.302C63.298,23.282 63.169,23.222 63.009,23.122C62.85,23.023 62.69,22.873 62.531,22.674C62.372,22.475 62.242,22.206 62.143,21.867C62.043,21.529 61.993,21.111 61.993,20.613L61.993,15.921L63.159,15.952C64.932,15.952 66.485,15.822 67.82,15.563L70.569,20.613C70.867,21.21 71.017,21.728 71.017,22.166C71.017,22.425 70.997,22.624 70.957,22.764C70.837,23.043 70.738,23.212 70.658,23.272L70.538,23.332L75.707,23.332C75.488,23.332 75.15,23.182 74.692,22.883C73.915,22.425 73.218,21.648 72.6,20.553L69.612,15.145C73.437,13.95 75.349,11.599 75.349,8.094C75.349,6.659 74.991,5.335 74.273,4.12C73.556,2.905 72.401,1.934 70.807,1.207C69.214,0.479 67.122,0.116 64.533,0.116L58.378,0.116L58.617,0.235C58.757,0.315 58.921,0.46 59.11,0.669C59.299,0.878 59.474,1.162 59.633,1.52C59.792,1.879 59.892,2.327 59.932,2.865L59.932,20.613C59.892,21.15 59.792,21.598 59.633,21.957C59.474,22.316 59.299,22.595 59.11,22.794C58.921,22.993 58.757,23.137 58.617,23.227C58.478,23.317 58.398,23.361 58.378,23.361L63.547,23.361ZM63.667,15.533L61.993,15.503L61.993,2.895C61.993,1.819 62.252,1.052 62.77,0.594L63.637,0.594C66.067,0.594 67.969,0.938 69.343,1.625C70.718,2.312 71.689,3.228 72.257,4.374C72.824,5.519 73.108,6.769 73.108,8.123C73.108,9.478 72.824,10.718 72.257,11.843C71.689,12.969 70.723,13.865 69.358,14.532C67.994,15.2 66.097,15.533 63.667,15.533ZM87.256,23.361L87.107,23.302C87.007,23.282 86.878,23.222 86.718,23.122C86.559,23.023 86.399,22.868 86.24,22.659C86.081,22.45 85.951,22.181 85.852,21.852C85.752,21.524 85.702,21.1 85.702,20.583L85.702,2.895C85.702,2.377 85.752,1.953 85.852,1.625C85.951,1.296 86.081,1.032 86.24,0.833C86.399,0.634 86.559,0.485 86.718,0.385C86.878,0.285 87.007,0.216 87.107,0.176L87.256,0.146L82.087,0.146C82.107,0.146 82.187,0.186 82.326,0.265C82.466,0.345 82.63,0.489 82.819,0.699C83.008,0.908 83.183,1.187 83.342,1.535C83.501,1.884 83.601,2.327 83.641,2.865L83.641,20.642C83.601,21.18 83.501,21.623 83.342,21.972C83.183,22.32 83.008,22.599 82.819,22.809C82.63,23.018 82.456,23.162 82.296,23.242L82.087,23.361L87.256,23.361ZM114.341,23.361C114.322,23.361 114.167,23.286 113.878,23.137C113.59,22.988 113.251,22.714 112.863,22.316C112.474,21.917 112.111,21.359 111.772,20.642L104.422,0.146L96.803,20.642C96.484,21.359 96.126,21.917 95.727,22.316C95.329,22.714 94.99,22.983 94.711,23.122L94.263,23.361L99.432,23.361L99.343,23.332C99.124,23.272 98.939,23.137 98.79,22.928C98.641,22.719 98.566,22.435 98.566,22.077C98.566,21.678 98.666,21.18 98.865,20.583L101.225,14.159L108.396,14.159L110.756,20.583C110.975,21.14 111.085,21.618 111.085,22.017C111.085,22.574 110.915,22.973 110.577,23.212L110.218,23.361L114.341,23.361ZM107.977,13.053L101.643,13.053L104.81,4.419L107.977,13.053ZM135.75,23.361L135.75,2.895C135.75,2.377 135.8,1.953 135.899,1.625C135.999,1.296 136.128,1.032 136.288,0.833C136.447,0.634 136.607,0.485 136.766,0.385C136.925,0.285 137.055,0.216 137.154,0.176L137.304,0.146L133.21,0.146C133.23,0.146 133.31,0.186 133.449,0.265C133.589,0.345 133.753,0.489 133.942,0.699C134.132,0.908 134.306,1.187 134.465,1.535C134.625,1.884 134.724,2.327 134.764,2.865L134.764,18.85L126.219,2.895C125.88,2.217 125.691,1.67 125.651,1.251C125.651,1.052 125.671,0.888 125.711,0.758C125.751,0.629 125.806,0.519 125.875,0.43C125.945,0.34 126.015,0.275 126.084,0.235C126.154,0.196 126.209,0.176 126.249,0.176L126.338,0.146L121.08,0.146L121.289,0.265C121.448,0.345 121.623,0.489 121.812,0.699C122.001,0.908 122.176,1.187 122.335,1.535C122.494,1.884 122.594,2.327 122.634,2.865L122.634,20.642C122.594,21.18 122.494,21.623 122.335,21.972C122.176,22.32 121.996,22.599 121.797,22.809C121.598,23.018 121.429,23.162 121.289,23.242L121.08,23.361L125.173,23.361L124.994,23.332C124.695,23.232 124.416,23.003 124.157,22.644C123.779,22.166 123.59,21.479 123.59,20.583C123.59,8.492 123.61,2.337 123.65,2.118C123.829,2.337 124.008,2.586 124.187,2.865L135.183,23.361L135.75,23.361ZM154.35,23.421C152.278,23.421 150.391,22.898 148.688,21.852C146.985,20.807 145.625,19.412 144.61,17.67C143.594,15.927 143.086,13.989 143.086,11.858C143.086,9.727 143.594,7.79 144.61,6.047C145.625,4.304 146.985,2.91 148.688,1.864C150.391,0.818 152.278,0.295 154.35,0.295C156.421,0.295 158.309,0.818 160.012,1.864C161.715,2.91 163.074,4.304 164.09,6.047C165.106,7.79 165.614,9.727 165.614,11.858C165.614,13.989 165.106,15.927 164.09,17.67C163.074,19.412 161.715,20.807 160.012,21.852C158.309,22.898 156.421,23.421 154.35,23.421ZM154.35,22.794C156.003,22.794 157.512,22.301 158.877,21.315C160.241,20.329 161.327,19.014 162.133,17.371C162.94,15.727 163.343,13.9 163.343,11.888C163.343,9.876 162.94,8.044 162.133,6.391C161.327,4.737 160.241,3.422 158.877,2.446C157.512,1.47 156.003,0.982 154.35,0.982C152.697,0.982 151.188,1.47 149.824,2.446C148.459,3.422 147.368,4.737 146.552,6.391C145.735,8.044 145.327,9.876 145.327,11.888C145.327,13.9 145.735,15.727 146.552,17.371C147.368,19.014 148.459,20.329 149.824,21.315C151.188,22.301 152.697,22.794 154.35,22.794ZM230.093,23.361L222.474,2.865C222.155,2.148 221.797,1.59 221.399,1.192C221,0.793 220.662,0.514 220.383,0.355L219.935,0.146L225.103,0.146L224.984,0.176C224.765,0.256 224.586,0.395 224.446,0.594C224.307,0.793 224.237,1.062 224.237,1.401C224.237,1.819 224.337,2.327 224.536,2.925L230.482,19.089L236.427,2.925C236.627,2.367 236.726,1.909 236.726,1.55C236.726,0.933 236.567,0.514 236.248,0.295L235.89,0.146L239.983,0.146L239.564,0.355C239.266,0.514 238.917,0.793 238.519,1.192C238.12,1.59 237.762,2.148 237.443,2.865L230.093,23.361ZM251.83,23.361L251.681,23.302C251.581,23.282 251.452,23.222 251.292,23.122C251.133,23.023 250.974,22.868 250.814,22.659C250.655,22.45 250.525,22.181 250.426,21.852C250.326,21.524 250.277,21.1 250.277,20.583L250.277,2.895C250.277,2.377 250.326,1.953 250.426,1.625C250.525,1.296 250.655,1.032 250.814,0.833C250.974,0.634 251.133,0.485 251.292,0.385C251.452,0.285 251.581,0.216 251.681,0.176L251.83,0.146L246.661,0.146C246.681,0.146 246.761,0.186 246.9,0.265C247.04,0.345 247.204,0.489 247.393,0.699C247.582,0.908 247.757,1.187 247.916,1.535C248.075,1.884 248.175,2.327 248.215,2.865L248.215,20.642C248.175,21.18 248.075,21.623 247.916,21.972C247.757,22.32 247.582,22.599 247.393,22.809C247.204,23.018 247.03,23.162 246.87,23.242L246.661,23.361L251.83,23.361ZM272.671,23.361L271.775,20.792L271.745,21.001C271.725,21.14 271.685,21.31 271.625,21.509C271.566,21.708 271.471,21.907 271.342,22.106C271.212,22.306 271.033,22.475 270.804,22.614C270.575,22.754 270.281,22.824 269.922,22.824L263.11,22.824C262.652,22.345 262.423,21.598 262.423,20.583L262.423,2.895C262.423,1.998 262.612,1.311 262.991,0.833C263.25,0.495 263.528,0.275 263.827,0.176L264.006,0.146L258.837,0.146L259.047,0.265C259.186,0.345 259.35,0.489 259.54,0.699C259.729,0.908 259.903,1.187 260.063,1.535C260.222,1.884 260.331,2.327 260.391,2.865L260.391,20.642C260.331,21.18 260.222,21.623 260.063,21.972C259.903,22.32 259.729,22.599 259.54,22.809C259.35,23.018 259.186,23.162 259.047,23.242L258.837,23.361L272.671,23.361ZM293.512,23.361L292.616,20.792L292.586,21.001C292.566,21.14 292.526,21.31 292.466,21.509C292.406,21.708 292.312,21.907 292.183,22.106C292.053,22.306 291.874,22.475 291.645,22.614C291.416,22.754 291.122,22.824 290.763,22.824L283.951,22.824C283.493,22.345 283.264,21.598 283.264,20.583L283.264,2.895C283.264,1.998 283.453,1.311 283.831,0.833C284.09,0.495 284.369,0.275 284.668,0.176L284.847,0.146L279.678,0.146L279.888,0.265C280.027,0.345 280.191,0.489 280.38,0.699C280.57,0.908 280.744,1.187 280.903,1.535C281.063,1.884 281.172,2.327 281.232,2.865L281.232,20.642C281.172,21.18 281.063,21.623 280.903,21.972C280.744,22.32 280.57,22.599 280.38,22.809C280.191,23.018 280.027,23.162 279.888,23.242L279.678,23.361L293.512,23.361ZM319.761,23.361C319.741,23.361 319.586,23.286 319.298,23.137C319.009,22.988 318.67,22.714 318.282,22.316C317.893,21.917 317.53,21.359 317.191,20.642L309.841,0.146L302.222,20.642C301.903,21.359 301.545,21.917 301.147,22.316C300.748,22.714 300.41,22.983 300.131,23.122L299.682,23.361L304.851,23.361L304.762,23.332C304.543,23.272 304.358,23.137 304.209,22.928C304.06,22.719 303.985,22.435 303.985,22.077C303.985,21.678 304.085,21.18 304.284,20.583L306.644,14.159L313.815,14.159L316.175,20.583C316.394,21.14 316.504,21.618 316.504,22.017C316.504,22.574 316.335,22.973 315.996,23.212L315.638,23.361L319.761,23.361ZM313.396,13.053L307.062,13.053L310.23,4.419L313.396,13.053ZM333.341,23.361C334.935,23.361 336.229,23.122 337.225,22.644C338.221,22.166 338.993,21.583 339.541,20.896C340.089,20.209 340.467,19.517 340.676,18.82C340.885,18.123 340.99,17.565 340.99,17.147C340.99,15.912 340.756,14.896 340.288,14.099C339.82,13.302 339.202,12.655 338.435,12.157C337.668,11.659 336.817,11.251 335.881,10.932C334.945,10.613 333.998,10.334 333.042,10.095C331.967,9.817 330.961,9.508 330.025,9.169C329.089,8.831 328.331,8.372 327.754,7.795C327.176,7.217 326.887,6.43 326.887,5.434C326.887,4.896 327.067,4.254 327.425,3.507C327.784,2.76 328.342,2.108 329.098,1.55C329.855,0.993 330.831,0.714 332.026,0.714C333.56,0.714 334.706,1.007 335.462,1.595C336.219,2.183 336.687,2.865 336.867,3.642C336.946,4.02 336.986,4.388 336.986,4.747C336.986,5.125 336.936,5.494 336.837,5.853L339.885,4.329C339.705,4.269 339.556,4.184 339.436,4.075C339.317,3.965 339.207,3.851 339.108,3.731C338.132,2.536 337.156,1.63 336.18,1.012C335.203,0.395 333.819,0.086 332.026,0.086C330.632,0.086 329.507,0.29 328.65,0.699C327.794,1.107 327.126,1.61 326.648,2.207C326.17,2.805 325.842,3.408 325.662,4.015C325.483,4.623 325.394,5.106 325.394,5.464C325.394,6.48 325.682,7.297 326.26,7.914C326.837,8.532 327.58,9.04 328.486,9.438C329.392,9.836 330.373,10.205 331.429,10.544C333.222,11.061 334.835,11.783 336.269,12.71C337.703,13.636 338.5,15.115 338.659,17.147C338.659,18.501 338.351,19.676 337.733,20.672C336.917,21.987 335.453,22.644 333.341,22.644C330.871,22.644 329.198,21.937 328.321,20.523C327.824,19.746 327.574,18.919 327.574,18.043C327.574,17.565 327.634,17.117 327.754,16.698L324.228,18.461C324.527,18.561 324.806,18.76 325.065,19.059L325.125,19.148C326.26,20.523 327.39,21.569 328.516,22.286C329.641,23.003 331.25,23.361 333.341,23.361ZM365.297,23.361C365.277,23.361 365.123,23.286 364.834,23.137C364.545,22.988 364.206,22.714 363.818,22.316C363.429,21.917 363.066,21.359 362.727,20.642L355.377,0.146L347.758,20.642C347.439,21.359 347.081,21.917 346.683,22.316C346.284,22.714 345.946,22.983 345.667,23.122L345.218,23.361L350.387,23.361L350.298,23.332C350.079,23.272 349.895,23.137 349.745,22.928C349.596,22.719 349.521,22.435 349.521,22.077C349.521,21.678 349.621,21.18 349.82,20.583L352.18,14.159L359.351,14.159L361.711,20.583C361.93,21.14 362.04,21.618 362.04,22.017C362.04,22.574 361.871,22.973 361.532,23.212L361.174,23.361L365.297,23.361ZM358.932,13.053L352.598,13.053L355.766,4.419L358.932,13.053ZM386.705,23.361L386.705,2.895C386.705,2.377 386.755,1.953 386.855,1.625C386.954,1.296 387.084,1.032 387.243,0.833C387.403,0.634 387.562,0.485 387.721,0.385C387.88,0.285 388.01,0.216 388.11,0.176L388.259,0.146L384.166,0.146C384.185,0.146 384.265,0.186 384.405,0.265C384.544,0.345 384.709,0.489 384.898,0.699C385.087,0.908 385.261,1.187 385.421,1.535C385.58,1.884 385.679,2.327 385.719,2.865L385.719,18.85L377.174,2.895C376.836,2.217 376.646,1.67 376.607,1.251C376.607,1.052 376.626,0.888 376.666,0.758C376.706,0.629 376.761,0.519 376.83,0.43C376.9,0.34 376.97,0.275 377.04,0.235C377.109,0.196 377.164,0.176 377.204,0.176L377.294,0.146L372.035,0.146L372.244,0.265C372.404,0.345 372.578,0.489 372.767,0.699C372.956,0.908 373.131,1.187 373.29,1.535C373.449,1.884 373.549,2.327 373.589,2.865L373.589,20.642C373.549,21.18 373.449,21.623 373.29,21.972C373.131,22.32 372.951,22.599 372.752,22.809C372.553,23.018 372.384,23.162 372.244,23.242L372.035,23.361L376.128,23.361L375.949,23.332C375.65,23.232 375.371,23.003 375.113,22.644C374.734,22.166 374.545,21.479 374.545,20.583C374.545,8.492 374.565,2.337 374.605,2.118C374.784,2.337 374.963,2.586 375.142,2.865L386.138,23.361L386.705,23.361ZM406.232,23.332L406.082,23.302C405.763,23.202 405.475,22.983 405.216,22.644C404.837,22.166 404.648,21.489 404.648,20.613L404.648,2.895C404.648,1.899 404.877,1.152 405.335,0.654L409.309,0.654C409.668,0.654 409.961,0.724 410.191,0.863C410.42,1.002 410.599,1.172 410.728,1.371C410.858,1.57 410.952,1.769 411.012,1.969C411.072,2.168 411.102,2.337 411.102,2.476L411.132,2.685L412.028,0.116L395.236,0.116L396.133,2.685L396.163,2.476C396.163,2.337 396.193,2.168 396.252,1.969C396.312,1.769 396.406,1.57 396.536,1.371C396.666,1.172 396.845,1.002 397.074,0.863C397.303,0.724 397.607,0.654 397.985,0.654L401.78,0.654C402.198,1.052 402.477,1.789 402.616,2.865L402.616,20.613C402.576,21.15 402.477,21.594 402.318,21.942C402.158,22.291 401.979,22.57 401.78,22.779C401.581,22.988 401.411,23.132 401.272,23.212L401.063,23.332L406.232,23.332ZM424.234,23.361L424.085,23.302C423.985,23.282 423.856,23.222 423.696,23.122C423.537,23.023 423.377,22.868 423.218,22.659C423.059,22.45 422.929,22.181 422.83,21.852C422.73,21.524 422.68,21.1 422.68,20.583L422.68,2.895C422.68,2.377 422.73,1.953 422.83,1.625C422.929,1.296 423.059,1.032 423.218,0.833C423.377,0.634 423.537,0.485 423.696,0.385C423.856,0.285 423.985,0.216 424.085,0.176L424.234,0.146L419.065,0.146C419.085,0.146 419.164,0.186 419.304,0.265C419.443,0.345 419.608,0.489 419.797,0.699C419.986,0.908 420.161,1.187 420.32,1.535C420.479,1.884 420.579,2.327 420.619,2.865L420.619,20.642C420.579,21.18 420.479,21.623 420.32,21.972C420.161,22.32 419.986,22.599 419.797,22.809C419.608,23.018 419.433,23.162 419.274,23.242L419.065,23.361L424.234,23.361ZM202.843,12.172L202.843,11.873L196.873,11.873L196.873,12.172L197.341,12.172C198.277,12.167 198.869,12.72 199.268,13.531C200.08,15.184 200.035,17.286 199.253,19.064C196.733,16.977 195.08,15.434 193.83,14.313C190.753,11.559 189.089,9.652 189.089,7.147C189.089,4.707 190.753,2.91 193.033,2.91C195.578,2.91 197.281,4.667 197.281,7.526L197.58,7.526L198.098,4.145C197.047,2.86 195.03,2.043 193.038,2.013C189.363,2.013 187.028,4.219 187.028,7.147C187.028,8.686 187.416,9.936 188.158,11.136C186.081,12.187 184.543,13.94 184.543,16.659C184.543,21.115 187.844,23.66 193.69,23.66C196.021,23.66 197.889,22.883 199.213,21.589C201.738,23.595 204.487,23.361 205.647,23.361L205.647,23.063C203.75,22.918 202.012,21.429 200.403,20.04C201.424,18.257 201.758,15.967 201.285,13.521C201.13,12.715 201.514,12.172 202.39,12.172L202.843,12.172ZM193.69,22.754C189.234,22.754 186.724,20.259 186.724,16.659C186.724,14.831 187.267,13.133 188.646,11.858C189.562,13.093 190.847,14.318 192.451,15.792C194.019,17.231 195.682,18.675 198.187,20.747C197.137,21.947 195.623,22.754 193.69,22.754Z" style="fill:white;fill-rule:nonzero;stroke:white;stroke-width:1.03px;"/>
            </g>
        </g>
    </g>
</svg>
