<?xml version="1.0" encoding="UTF-8" standalone="no"?>
<!DOCTYPE svg PUBLIC "-//W3C//DTD SVG 1.1//EN" "http://www.w3.org/Graphics/SVG/1.1/DTD/svg11.dtd">
<svg width="100%" height="100%" viewBox="0 0 1016 880" version="1.1" xmlns="http://www.w3.org/2000/svg" xmlns:xlink="http://www.w3.org/1999/xlink" xml:space="preserve" xmlns:serif="http://www.serif.com/" style="fill-rule:evenodd;clip-rule:evenodd;stroke-linejoin:round;stroke-miterlimit:2;">
    <g id="Artboard1" transform="matrix(0.392336,0,0,0.811879,398.326,152.041)">
        <rect x="-1015.27" y="-187.271" width="2588.72" height="1082.71" style="fill:none;"/>
        <g transform="matrix(14.1602,0,0,6.84284,-982.68,-181.261)">
            <path d="M115.78,13.332L114.533,13.332L77.255,96.849L43.834,24.533C39.469,15.064 26.257,-3.668 2.606,1.667L2.606,3.053C19.374,0.905 29.237,15.387 35.08,26.889L29.049,47.408L26.651,55.57L10.24,55.57L10.24,56.979L11.348,56.979C15.644,56.979 20.227,59.774 23.566,65.663L23.644,65.8L20.441,76.697L19.167,81.029L12.861,102.485C11.352,107.621 7.664,110.846 2.814,110.846L0.597,110.846L0.597,112.232L27.435,112.232L27.435,110.915L25.287,110.915C22.723,110.915 18.967,108.214 19.883,105.003L25.438,85.51L28.576,74.498L54.169,119.632L55.823,122.547L58.576,127.403L72.855,153.5L75.042,153.5C76.902,149.112 78.317,144.692 80.339,140.265L120.484,69.138L123.719,80.01L128.668,96.641C133.888,114.181 142.238,130.467 158.639,135.215C161.89,136.347 166.644,136.539 166.644,136.539C169.522,136.695 172.6,136.552 175.901,136.067L175.901,134.681C172.577,134.824 169.498,134.501 166.644,133.736C161.039,132.049 157.209,129.06 157.209,129.06C148.801,122.634 142.935,110.983 138.6,95.394L130.823,67.426L127.729,56.301L127.894,56.009C135.57,42.408 143.254,24.02 166.258,23.095L166.258,21.71C143.955,20.858 132.617,32.745 124.736,45.539L121.86,35.195L115.78,13.332ZM69.416,127.375L34.999,65.593C32.137,60.455 36.662,56.956 40.219,56.956L41.443,56.956L41.443,55.57L33.971,55.57L36.297,47.408L39.492,36.197L75.384,114.172L76.678,114.172C77.578,108.444 81.436,100.013 81.436,100.013L110.283,34.857L114.097,47.672L117.409,58.806L75.465,138.233L74.103,135.788L69.416,127.375Z" style="fill:white;fill-rule:nonzero;"/>
        </g>
    </g>
</svg>
